<?xml version="1.0" encoding="utf-8"?>
<!-- Generator: Adobe Illustrator 16.0.0, SVG Export Plug-In . SVG Version: 6.00 Build 0)  -->
<!DOCTYPE svg PUBLIC "-//W3C//DTD SVG 1.1//EN" "http://www.w3.org/Graphics/SVG/1.1/DTD/svg11.dtd">
<svg version="1.1" id="Layer_1" xmlns="http://www.w3.org/2000/svg" xmlns:xlink="http://www.w3.org/1999/xlink" x="0px" y="0px"
	 width="235px" height="66.302px" viewBox="0 0 235 66.302" enable-background="new 0 0 235 66.302" xml:space="preserve">
<g>
	<g>
		<g>
			<polygon fill="#FDF386" points="116.641,35.498 125.829,29.151 135.991,35.999 136.155,49.557 126.801,56.041 116.641,49.193 			
				"/>
			<line fill="#FDF386" x1="115.926" y1="42.168" x2="136.563" y2="42.168"/>
			<line fill="#FDF386" x1="115.926" y1="46.093" x2="136.563" y2="46.093"/>
			<line fill="#FDF386" x1="115.926" y1="49.888" x2="136.563" y2="49.888"/>
			<line fill="#FDF386" x1="120.616" y1="53.209" x2="131.875" y2="53.209"/>
			<path fill="#FDF386" d="M131.977,18.637c-0.178,1.896-1.531,5.961-5.088,5.961c-3.555,0-6.438-2.809-6.438-6.274
				c0-3.466,3.104-7.479,6.438-6.274C128.848,12.757,132.299,15.186,131.977,18.637z"/>
			<path fill="#FDF386" d="M120.219,5.816l3.879,3.506c0,0,1.116-1.085,4.136,0.057l4.036-3.509l-3.962,0.542l-2.095-3.424
				l-2.171,3.359L120.219,5.816z"/>
			<path fill="#FDF386" d="M147.266,22.537L147.266,22.537c2.775-0.724,3.093-0.224,5.599,1.529
				c4.155,2.907,5.109,6.098,3.582,10.631c-1.463,4.339-7.461,4.858-11.541,2.271l0,0l-14.327-9.783L147.266,22.537z"/>
			<path fill="#FDF386" d="M106.439,22.983L106.439,22.983c-2.741-0.725-4.731-1.901-7.206-0.147
				c-4.103,2.907-5.218,7.894-2.491,11.842c2.592,3.752,7.718,4.877,11.746,2.29l0,0l14.429-9.337L106.439,22.983z"/>
			<g>
				<circle fill="#FDF386" cx="134.468" cy="8.735" r="1.278"/>
			</g>
			<g>
				<circle fill="#FDF386" cx="116.669" cy="8.903" r="1.279"/>
			</g>
			<path fill="#FDF386" d="M151.845,48.245c-0.489-0.484,0,0-0.394-0.358l-11.057-8.452l0.021,13.554
				c-0.006,0.143-0.021,0.284-0.021,0.431c0,0.363,0.035,0.718,0.082,1.068c0.011,0.103,0.026,0.204,0.044,0.304
				c0.015,0.092,0.03,0.185,0.05,0.274c0.582,3.011,2.767,5.275,5.46,5.844c0.603,0.161,1.234,0.256,1.888,0.256
				c4.155,0,6.1-3.103,6.1-7.381C154.018,51.344,153.559,49.663,151.845,48.245z"/>
			<path fill="#FDF386" d="M100.843,47.288c0.498-0.482,0.94-0.799,1.339-1.156l9.688-7.762l0.09,14.77c-1.445,0.15,0-0.146,0,0
				c0,0.363-0.033,0.718-0.081,1.067c-0.014,0.104-0.029,0.205-0.047,0.305c-0.015,0.091-0.03,0.184-0.049,0.273
				c-0.593,3.009-1.346,5.555-4.086,6.124c-0.614,0.161-1.256,0.256-1.92,0.256c-4.225,0-7.648-3.469-7.648-7.747
				C98.128,50.978,99.101,48.707,100.843,47.288z"/>
		</g>
		<polygon fill="none" stroke="#383838" stroke-width="1.4096" stroke-miterlimit="10" points="114.4,36.405 124.922,29.151 
			135.444,36.405 135.444,50.916 124.922,58.169 114.4,50.916 		"/>
		
			<line fill="none" stroke="#383838" stroke-width="1.7619" stroke-miterlimit="10" x1="114.4" y1="42.956" x2="135.444" y2="42.956"/>
		
			<line fill="none" stroke="#383838" stroke-width="1.7619" stroke-miterlimit="10" x1="114.4" y1="46.958" x2="135.444" y2="46.958"/>
		
			<line fill="none" stroke="#383838" stroke-width="1.7619" stroke-miterlimit="10" x1="114.4" y1="50.827" x2="135.444" y2="50.827"/>
		
			<line fill="none" stroke="#383838" stroke-width="1.7619" stroke-miterlimit="10" x1="119.183" y1="54.212" x2="130.663" y2="54.212"/>
		<circle fill="none" stroke="#383838" stroke-width="1.4096" stroke-miterlimit="10" cx="124.922" cy="18.777" r="6.529"/>
		<path fill="none" stroke="#383838" stroke-width="1.4096" stroke-miterlimit="10" d="M118.394,5.888l3.954,3.575
			c0,0,1.909-1.164,4.985,0l4.118-3.577l-3.896,0.582l-2.634-4.304l-2.631,4.266L118.394,5.888z"/>
		<path fill="none" stroke="#383838" stroke-width="1.4096" stroke-miterlimit="10" d="M144.468,22.626L144.468,22.626
			c2.829-0.738,5.765-0.454,8.321,1.334c4.235,2.964,5.388,8.05,2.57,12.075c-2.676,3.827-7.969,4.973-12.129,2.335l0,0
			l-15.778-11.004L144.468,22.626z"/>
		<path fill="none" stroke="#383838" stroke-width="1.4096" stroke-miterlimit="10" d="M105.394,22.626L105.394,22.626
			c-2.829-0.738-5.766-0.454-8.321,1.334c-4.235,2.964-5.387,8.05-2.571,12.075c2.676,3.827,7.969,4.973,12.128,2.335l0,0
			l15.78-11.004L105.394,22.626z"/>
		<g>
			
				<line fill="none" stroke="#383838" stroke-width="1.4096" stroke-miterlimit="10" x1="133.147" y1="7.904" x2="127.69" y2="12.777"/>
			<circle fill="none" stroke="#383838" stroke-width="1.4096" stroke-miterlimit="10" cx="134.027" cy="8.864" r="1.304"/>
		</g>
		<g>
			
				<line fill="none" stroke="#383838" stroke-width="1.4096" stroke-miterlimit="10" x1="116.757" y1="8.076" x2="122.215" y2="12.948"/>
			<circle fill="none" stroke="#383838" stroke-width="1.4096" stroke-miterlimit="10" cx="115.878" cy="9.037" r="1.304"/>
		</g>
		<path fill="none" stroke="#383838" stroke-width="1.4096" stroke-miterlimit="10" d="M151.215,48.175
			c-0.516-0.492-0.973-0.814-1.386-1.177l-11.61-8.621l0.022,15.61c-0.009,0.146-0.022,0.292-0.022,0.439
			c0,0.372,0.032,0.731,0.083,1.09c0.014,0.104,0.031,0.207,0.049,0.31c0.015,0.093,0.03,0.188,0.05,0.28
			c0.613,3.068,2.905,5.379,5.735,5.958c0.635,0.165,1.296,0.261,1.981,0.261c4.364,0,7.9-3.537,7.9-7.899
			C154.018,51.938,153.013,49.623,151.215,48.175z"/>
		<path fill="none" stroke="#383838" stroke-width="1.4096" stroke-miterlimit="10" d="M98.733,48.175
			c0.516-0.492,0.973-0.814,1.384-1.177l11.612-8.621l-0.021,15.61c0.008,0.146,0.021,0.292,0.021,0.439
			c0,0.372-0.035,0.731-0.084,1.09c-0.013,0.104-0.029,0.207-0.047,0.31c-0.018,0.093-0.032,0.188-0.053,0.28
			c-0.612,3.068-2.905,5.379-5.733,5.958c-0.635,0.165-1.297,0.261-1.982,0.261c-4.363,0-7.899-3.537-7.899-7.899
			C95.931,51.938,96.935,49.623,98.733,48.175z"/>
	</g>
	<g>
		<text transform="matrix(1 0 0 1 18.4082 42.5469)"><tspan x="0" y="0" fill="#383838" font-family="'PlayfairDisplay-Bold'" font-size="15.343" letter-spacing="2">HONEY </tspan><tspan x="74.946" y="0" fill="#383838" font-family="'PlayfairDisplay-Bold'" font-size="15.343" letter-spacing="16">	</tspan><tspan x="94.82" y="0" fill="#383838" font-family="'PlayfairDisplay-Bold'" font-size="15.343" letter-spacing="2">        </tspan><tspan x="145.504" y="0" fill="#383838" font-family="'PlayfairDisplay-Bold'" font-size="15.343" letter-spacing="3">BREW</tspan></text>
		<g>
			<circle fill="#383838" cx="226.984" cy="38.247" r="1.729"/>
			<circle fill="#383838" cx="8.015" cy="38.247" r="1.728"/>
		</g>
	</g>
</g>
</svg>
