<?xml version="1.0" encoding="utf-8"?>
<!-- Generator: Adobe Illustrator 19.2.1, SVG Export Plug-In . SVG Version: 6.00 Build 0)  -->
<svg version="1.1" id="Layer_1" xmlns="http://www.w3.org/2000/svg" xmlns:xlink="http://www.w3.org/1999/xlink" x="0px" y="0px"
	 viewBox="0 0 235 71.2" style="enable-background:new 0 0 235 71.2;" xml:space="preserve">
<style type="text/css">
	.st0{fill:#FDF386;}
	.st1{fill:none;stroke:#383838;stroke-width:1.4825;stroke-miterlimit:10;}
	.st2{fill:none;stroke:#383838;stroke-width:1.8531;stroke-miterlimit:10;}
	.st3{fill:#383838;}
</style>
<g>
	<g>
		<g>
			<polygon class="st0" points="115.4,38.1 125.1,31.4 135.8,38.6 135.9,52.8 126.1,59.7 115.4,52.5 			"/>
			<line class="st0" x1="114.7" y1="45.1" x2="136.4" y2="45.1"/>
			<line class="st0" x1="114.7" y1="49.2" x2="136.4" y2="49.2"/>
			<line class="st0" x1="114.7" y1="53.2" x2="136.4" y2="53.2"/>
			<line class="st0" x1="119.6" y1="56.7" x2="131.4" y2="56.7"/>
			<path class="st0" d="M131.5,20.3c-0.2,2-1.6,6.3-5.4,6.3c-3.7,0-6.8-3-6.8-6.6s3.3-7.9,6.8-6.6C128.3,14.1,131.9,16.7,131.5,20.3
				z"/>
			<path class="st0" d="M119.2,6.8l4.1,3.7c0,0,1.2-1.1,4.3,0.1l4.2-3.7l-4.2,0.6l-2.2-3.6l-2.3,3.5L119.2,6.8z"/>
			<path class="st0" d="M147.6,24.4L147.6,24.4c2.9-0.8,3.3-0.2,5.9,1.6c4.4,3.1,5.4,6.4,3.8,11.2c-1.5,4.6-7.8,5.1-12.1,2.4l0,0
				l-15.1-10.3L147.6,24.4z"/>
			<path class="st0" d="M104.7,24.9L104.7,24.9c-2.9-0.8-5-2-7.6-0.2c-4.3,3.1-5.5,8.3-2.6,12.5c2.7,3.9,8.1,5.1,12.4,2.4l0,0
				l15.2-9.8L104.7,24.9z"/>
			<g>
				<circle class="st0" cx="134.2" cy="9.9" r="1.3"/>
			</g>
			<g>
				<circle class="st0" cx="115.4" cy="10.1" r="1.3"/>
			</g>
			<path class="st0" d="M152.4,51.5c-0.5-0.5,0,0-0.4-0.4l-11.6-8.9l0,14.3c0,0.1,0,0.3,0,0.5c0,0.4,0,0.8,0.1,1.1
				c0,0.1,0,0.2,0,0.3c0,0.1,0,0.2,0.1,0.3c0.6,3.2,2.9,5.5,5.7,6.1c0.6,0.2,1.3,0.3,2,0.3c4.4,0,6.4-3.3,6.4-7.8
				C154.7,54.7,154.2,53,152.4,51.5z"/>
			<path class="st0" d="M98.8,50.5c0.5-0.5,1-0.8,1.4-1.2l10.2-8.2l0.1,15.5c-1.5,0.2,0-0.2,0,0c0,0.4,0,0.8-0.1,1.1
				c0,0.1,0,0.2,0,0.3c0,0.1,0,0.2-0.1,0.3c-0.6,3.2-1.4,5.8-4.3,6.4c-0.6,0.2-1.3,0.3-2,0.3c-4.4,0-8-3.6-8-8.1
				C95.9,54.3,97,52,98.8,50.5z"/>
		</g>
		<polygon class="st1" points="113.1,39 124.1,31.4 135.2,39 135.2,54.3 124.1,61.9 113.1,54.3 		"/>
		<line class="st2" x1="113.1" y1="45.9" x2="135.2" y2="45.9"/>
		<line class="st2" x1="113.1" y1="50.1" x2="135.2" y2="50.1"/>
		<line class="st2" x1="113.1" y1="54.2" x2="135.2" y2="54.2"/>
		<line class="st2" x1="118.1" y1="57.7" x2="130.2" y2="57.7"/>
		<circle class="st1" cx="124.1" cy="20.5" r="6.9"/>
		<path class="st1" d="M117.3,6.9l4.2,3.8c0,0,2-1.2,5.2,0l4.3-3.8l-4.1,0.6L124.1,3l-2.8,4.5L117.3,6.9z"/>
		<path class="st1" d="M144.7,24.5L144.7,24.5c3-0.8,6.1-0.5,8.8,1.4c4.5,3.1,5.7,8.5,2.7,12.7c-2.8,4-8.4,5.2-12.8,2.5l0,0
			l-16.6-11.6L144.7,24.5z"/>
		<path class="st1" d="M103.6,24.5L103.6,24.5c-3-0.8-6.1-0.5-8.8,1.4c-4.5,3.1-5.7,8.5-2.7,12.7c2.8,4,8.4,5.2,12.8,2.5l0,0
			l16.6-11.6L103.6,24.5z"/>
		<g>
			<line class="st1" x1="132.8" y1="9" x2="127" y2="14.2"/>
			<circle class="st1" cx="133.7" cy="10" r="1.4"/>
		</g>
		<g>
			<line class="st1" x1="115.5" y1="9.2" x2="121.3" y2="14.3"/>
			<circle class="st1" cx="114.6" cy="10.2" r="1.4"/>
		</g>
		<path class="st1" d="M151.8,51.4c-0.5-0.5-1-0.9-1.5-1.2l-12.2-9.1l0,16.4c0,0.2,0,0.3,0,0.5c0,0.4,0,0.8,0.1,1.1
			c0,0.1,0,0.2,0.1,0.3c0,0.1,0,0.2,0.1,0.3c0.6,3.2,3.1,5.7,6,6.3c0.7,0.2,1.4,0.3,2.1,0.3c4.6,0,8.3-3.7,8.3-8.3
			C154.7,55.3,153.7,52.9,151.8,51.4z"/>
		<path class="st1" d="M96.6,51.4c0.5-0.5,1-0.9,1.5-1.2l12.2-9.1l0,16.4c0,0.2,0,0.3,0,0.5c0,0.4,0,0.8-0.1,1.1c0,0.1,0,0.2,0,0.3
			c0,0.1,0,0.2-0.1,0.3c-0.6,3.2-3.1,5.7-6,6.3c-0.7,0.2-1.4,0.3-2.1,0.3c-4.6,0-8.3-3.7-8.3-8.3C93.6,55.3,94.7,52.9,96.6,51.4z"/>
	</g>
	<g>
		<g>
			<path class="st3" d="M24.2,34.4c-1,0-1.2,0.2-1.2,1.4v8c0,1.2,0.2,1.3,1.2,1.4v0.3c-0.5,0-1.5,0-2.4,0c-0.9,0-1.9,0-2.5,0v-0.3
				c1,0,1.2-0.2,1.2-1.4v-3.9h-4.3v3.9c0,1.2,0.2,1.3,1.2,1.4v0.3c-0.6,0-1.5,0-2.4,0c-1,0-2,0-2.5,0v-0.3c1,0,1.2-0.2,1.2-1.4v-8
				c0-1.2-0.2-1.3-1.2-1.4v-0.3c0.5,0,1.5,0,2.5,0c0.9,0,1.9,0,2.4,0v0.3c-1,0-1.2,0.2-1.2,1.4v3.8h4.3v-3.8c0-1.2-0.2-1.3-1.2-1.4
				v-0.3c0.6,0,1.6,0,2.5,0c1,0,1.9,0,2.4,0V34.4z"/>
			<path class="st3" d="M39.6,39.7c0,3.6-2.4,6-5.7,6c-3.4,0-5.7-2.1-5.7-5.8c0-3.6,2.4-6,5.7-6C37.3,33.8,39.6,36,39.6,39.7z
				 M30.9,39.8c0,3.4,1.4,5.6,3.1,5.6c1.8,0,3-2.3,3-5.7c0-3.4-1.4-5.6-3.1-5.6C32.1,34.1,30.9,36.5,30.9,39.8z"/>
			<path class="st3" d="M54.3,34.4c-1,0.1-1.2,0.6-1.2,2.1v9c-0.1,0-0.3,0-0.4,0c-0.1,0-0.3,0-0.4,0l-7-8.9v6.2
				c0,1.8,0.1,2.2,1.6,2.3v0.3c-0.4,0-1.2,0-1.7,0c-0.5,0-1.1,0-1.4,0v-0.3c1-0.1,1.2-0.6,1.2-2.1v-7.3c0-1.2-0.2-1.3-1.2-1.4v-0.3
				c0.3,0,0.9,0,1.4,0c0.5,0,1,0,1.4,0l6.2,7.7v-5c0-1.8-0.1-2.2-1.6-2.3v-0.3c0.4,0,1.2,0,1.7,0c0.5,0,1.1,0,1.4,0V34.4z"/>
			<path class="st3" d="M67.1,45.5c-1.1,0-2.6,0-3.7,0c-1.1,0-3.5,0-5.3,0v-0.3c1,0,1.2-0.2,1.2-1.4v-8c0-1.2-0.2-1.3-1.2-1.4v-0.3
				c1.8,0,4.2,0,5.3,0c1,0,2.4,0,3.4,0c-0.1,1-0.1,1.9-0.1,2.4c0,0.4,0,0.8,0,1.1h-0.4c-0.3-2.4-1.2-3.1-2.6-3.1h-0.7
				c-0.9,0-1.1,0.1-1.1,1.1v4h0.5c1.3,0,1.7-1.3,1.9-2.1h0.4c0,0.7-0.1,1.1-0.1,1.5c0,0.3,0,0.5,0,0.8c0,0.5,0,1.1,0.1,2.3h-0.4
				c-0.2-1.1-0.7-2.1-2-2.1H62V44c0,1,0.2,1.1,1.1,1.1h0.8c1.4,0,2.4-0.8,2.8-3.4h0.4c0,0.3,0,0.8,0,1.4C67,43.5,67,44.5,67.1,45.5z
				"/>
			<path class="st3" d="M80.6,34v0.3c-0.5,0.2-1,0.7-1.5,1.9L77.1,40v3.8c0,1.2,0.2,1.3,1.2,1.4v0.3c-0.6,0-1.6,0-2.5,0
				c-1,0-2,0-2.5,0v-0.3c1,0,1.2-0.2,1.2-1.4V41l-3.1-5.7c-0.4-0.7-0.7-0.9-0.9-0.9V34c0.6,0,1.2,0.1,1.9,0.1c0.9,0,2.1,0,3-0.1v0.3
				c-0.6,0-1.2,0.1-1.2,0.5c0,0.1,0,0.2,0.1,0.4l2.5,4.7l1.3-2.5c0.4-0.9,0.6-1.5,0.6-2c0-0.8-0.5-1-1.3-1.1V34c0.7,0,1.3,0,2,0
				C79.8,34.1,80.3,34.1,80.6,34z"/>
			<path class="st3" d="M171.2,39.5c3,0.2,4.1,1.6,4.1,2.9c0,2-1.7,3.1-4.4,3.1c-0.5,0-1.5,0-2.9,0c-1,0-1.9,0-2.5,0v-0.3
				c1,0,1.2-0.2,1.2-1.4v-8c0-1.2-0.2-1.3-1.2-1.4v-0.3c0.5,0,1.5,0,2.4,0c1.1,0,2.1,0,2.5,0c2.7,0,4,1,4,2.5
				C174.4,37.7,173.5,39,171.2,39.5L171.2,39.5z M169.2,35.8v3.6h0.7c1.5,0,1.9-1.2,1.9-2.6c0-1.6-0.4-2.4-1.6-2.4
				C169.4,34.4,169.2,34.7,169.2,35.8z M172.6,42.3c0-1.6-0.8-2.6-2.7-2.6h-0.7v4.1c0,1.1,0.2,1.3,1.1,1.3
				C171.9,45.1,172.6,44.1,172.6,42.3z"/>
			<path class="st3" d="M190.4,44.8c-0.6,0.7-1.2,0.9-2.1,0.9c-1.2,0-1.9-0.4-2.2-1.7l-0.3-1.6c-0.2-1.3-0.5-2.3-1.5-2.3h-1v3.7
				c0,1.2,0.2,1.3,1.2,1.4v0.3c-0.6,0-1.5,0-2.4,0c-1,0-2,0-2.5,0v-0.3c1,0,1.2-0.2,1.2-1.4v-8c0-1.2-0.2-1.3-1.2-1.4v-0.3
				c0.5,0,1.5,0,2.4,0c1.1,0,2.1,0,2.5,0c3,0,4.5,1,4.5,2.8c0,1.3-0.8,2.8-3.6,3.1h0c2,0.2,2.8,0.8,3.1,2.1l0.4,1.7
				c0.2,0.9,0.4,1.2,0.8,1.2c0.3,0,0.4-0.1,0.7-0.4L190.4,44.8z M183.3,35.8v4h0.7c1.9,0,2.3-1.2,2.3-2.7c0-1.7-0.5-2.7-2-2.7
				C183.4,34.4,183.3,34.7,183.3,35.8z"/>
			<path class="st3" d="M202.8,45.5c-1.1,0-2.6,0-3.7,0c-1.1,0-3.5,0-5.3,0v-0.3c1,0,1.2-0.2,1.2-1.4v-8c0-1.2-0.2-1.3-1.2-1.4v-0.3
				c1.8,0,4.2,0,5.3,0c1,0,2.4,0,3.4,0c-0.1,1-0.1,1.9-0.1,2.4c0,0.4,0,0.8,0,1.1h-0.4c-0.3-2.4-1.2-3.1-2.6-3.1h-0.7
				c-0.9,0-1.1,0.1-1.1,1.1v4h0.5c1.3,0,1.7-1.3,1.9-2.1h0.4c0,0.7-0.1,1.1-0.1,1.5c0,0.3,0,0.5,0,0.8c0,0.5,0,1.1,0.1,2.3h-0.4
				c-0.2-1.1-0.7-2.1-2-2.1h-0.5V44c0,1,0.2,1.1,1.1,1.1h0.8c1.4,0,2.4-0.8,2.8-3.4h0.4c0,0.3,0,0.8,0,1.4
				C202.7,43.5,202.7,44.5,202.8,45.5z"/>
			<path class="st3" d="M222.4,34.1v0.3c-0.5,0.2-1,0.7-1.4,1.9l-2.8,9.2c-0.2,0-0.4,0-0.6,0c-0.2,0-0.4,0-0.6,0l-2.4-7.2l-2.4,7.2
				c-0.2,0-0.4,0-0.6,0c-0.2,0-0.4,0-0.6,0l-3.6-10.1c-0.3-0.8-0.7-1-1-1v-0.3c0.6,0,1.6,0,2.4,0c0.9,0,1.6,0,2,0v0.3
				c-0.4,0.1-0.6,0.3-0.6,0.6c0,0.2,0.1,0.5,0.1,0.7l2.3,6.8l1.6-4.8l-0.8-2.5c-0.2-0.7-0.5-0.8-0.9-0.9v-0.3c0.6,0,1.5,0,2.3,0
				c0.9,0,1.8,0,2.3,0v0.3c-0.7,0-1.1,0.1-1.1,0.6c0,0.2,0.1,0.4,0.2,0.8l2.2,6.7l1.5-4.9c0.2-0.8,0.4-1.4,0.4-1.9
				c0-1-0.5-1.3-1.4-1.3v-0.3c0.7,0,1.3,0,2,0C221.6,34.1,222,34.1,222.4,34.1z"/>
		</g>
		<g>
			<circle class="st3" cx="231.5" cy="40.9" r="1.8"/>
			<circle class="st3" cx="3.5" cy="40.9" r="1.8"/>
		</g>
	</g>
</g>
</svg>
