<?xml version="1.0" encoding="utf-8"?>
<!-- Generator: Adobe Illustrator 19.2.1, SVG Export Plug-In . SVG Version: 6.00 Build 0)  -->
<svg version="1.1" id="Layer_1" xmlns="http://www.w3.org/2000/svg" xmlns:xlink="http://www.w3.org/1999/xlink" x="0px" y="0px"
	 viewBox="0 0 40 33.2" style="enable-background:new 0 0 40 33.2;" xml:space="preserve">
<style type="text/css">
	.st0{fill:#C7E0DE;}
	.st1{fill:none;stroke:#FFFFFF;stroke-width:0.9404;stroke-miterlimit:10;}
	.st2{fill:#FFFFFF;}
	.st3{fill:#FDF386;}
	.st4{fill:none;stroke:#414042;stroke-width:0.9404;stroke-miterlimit:10;}
</style>
<g>
	<polygon class="st0" points="31.6,25.5 4,25.4 4,4.2 31.3,4.2 36,10.2 36,19.9 	"/>
	<polygon class="st1" points="32.2,25.4 2.4,25.4 2.4,2.7 32.5,2.7 37.6,9.1 37.6,18.1 	"/>
	<g>
		<path class="st2" d="M29.5,11.5c-0.4,0.4-1.1,0.5-1.6,0l-4.8-4.5c-0.4-0.4-0.5-1.1-0.1-1.6l0,0c0.4-0.4,1.1-0.5,1.6-0.1l4.8,4.5
			C29.9,10.4,29.9,11.1,29.5,11.5L29.5,11.5z"/>
		<path class="st2" d="M20.4,21.1c-0.4,0.4-1.1,0.5-1.5,0.1l-4.8-4.5c-0.4-0.4-0.5-1.1-0.1-1.5l0,0c0.4-0.4,1.1-0.5,1.6-0.1l4.8,4.5
			C20.8,20,20.9,20.7,20.4,21.1L20.4,21.1z"/>
		<path class="st2" d="M28.6,15.2c-0.4,0.4-1.1,0.5-1.6,0l-7.6-7.1C19,7.7,19,7,19.4,6.6l0,0c0.4-0.4,1.1-0.5,1.6-0.1l7.6,7.1
			C29,14.1,29.1,14.8,28.6,15.2L28.6,15.2z"/>
		<path class="st2" d="M28,19.2c-0.4,0.4-1.1,0.5-1.6,0L15.5,9c-0.4-0.4-0.5-1.1-0.1-1.6l0,0C15.9,7,16.6,7,17,7.4l10.9,10.2
			C28.4,18,28.4,18.7,28,19.2L28,19.2z"/>
		<path class="st2" d="M24.1,20.1c-0.4,0.4-1.1,0.5-1.6,0.1L14.9,13c-0.4-0.4-0.5-1.1-0.1-1.6l0,0c0.4-0.4,1.1-0.5,1.6-0.1l7.6,7.1
			C24.5,18.9,24.5,19.6,24.1,20.1L24.1,20.1z"/>
		<path class="st2" d="M7.6,30.1c-0.4,0.4-1,0.4-1.4,0l0,0c-0.4-0.4-0.4-1,0-1.4l9.7-10.4l1.4,1.3L7.6,30.1z"/>
		<path class="st2" d="M10.3,15.6c-0.9,1-2.5,1-3.5,0.1c-1-0.9-1-2.5-0.1-3.5c0.9-1,4.7-1.4,4.7-1.4S11.2,14.6,10.3,15.6z"/>
	</g>
	<path class="st3" d="M30.9,11.5c-0.4,0.4-1.1,0.5-1.6,0l-4.8-4.5c-0.4-0.4-0.5-1.1-0.1-1.6l0,0c0.4-0.4,1.1-0.5,1.6,0l4.8,4.5
		C31.3,10.4,31.3,11.1,30.9,11.5L30.9,11.5z"/>
	<path class="st3" d="M21.9,21.1c-0.4,0.4-1.1,0.5-1.6,0l-4.8-4.5c-0.4-0.4-0.5-1.1,0-1.6l0,0c0.4-0.4,1.1-0.5,1.6,0l4.8,4.5
		C22.2,20,22.3,20.7,21.9,21.1L21.9,21.1z"/>
	<path class="st3" d="M30,15.2c-0.4,0.4-1.1,0.5-1.6,0.1l-7.6-7.1c-0.4-0.4-0.5-1.1,0-1.6l0,0c0.4-0.4,1.1-0.5,1.6,0l7.6,7.1
		C30.4,14.1,30.5,14.7,30,15.2L30,15.2z"/>
	<path class="st3" d="M29.4,19.2c-0.4,0.4-1.1,0.5-1.6,0.1L16.9,9c-0.4-0.4-0.5-1.1-0.1-1.5l0,0C17.3,7,18,7,18.4,7.4l10.9,10.2
		C29.8,18,29.8,18.7,29.4,19.2L29.4,19.2z"/>
	<path class="st3" d="M25.5,20.1c-0.4,0.4-1.1,0.5-1.6,0.1L16.4,13c-0.4-0.4-0.5-1.1-0.1-1.6l0,0c0.4-0.4,1.1-0.5,1.6,0l7.6,7.1
		C25.9,18.9,25.9,19.6,25.5,20.1L25.5,20.1z"/>
	<path class="st3" d="M7.5,30.1c-0.4,0.4-0.8,0.6-1,0.4l0,0c-0.2-0.2-0.1-0.7,0.3-1.1L16.5,19l0.7,0.7L7.5,30.1z"/>
	<path class="st3" d="M11.5,16.4c-0.9,1-2.5,1-3.5,0.1C7,15.6,7,14,7.9,13c0.9-1,4.7-1.4,4.7-1.4S12.4,15.4,11.5,16.4z"/>
	<circle class="st4" cx="33.7" cy="14.1" r="1.1"/>
	<path class="st4" d="M29.5,11.5c-0.4,0.4-1.1,0.5-1.6,0l-4.8-4.5c-0.4-0.4-0.5-1.1-0.1-1.6l0,0c0.4-0.4,1.1-0.5,1.6-0.1l4.8,4.5
		C29.9,10.4,29.9,11.1,29.5,11.5L29.5,11.5z"/>
	<path class="st4" d="M20.4,21.1c-0.4,0.4-1.1,0.5-1.5,0.1l-4.8-4.5c-0.4-0.4-0.5-1.1-0.1-1.5l0,0c0.4-0.4,1.1-0.5,1.6-0.1l4.8,4.5
		C20.8,20,20.9,20.7,20.4,21.1L20.4,21.1z"/>
	<path class="st4" d="M28.6,15.2c-0.4,0.4-1.1,0.5-1.6,0l-7.6-7.1C19,7.7,19,7,19.4,6.6l0,0c0.4-0.4,1.1-0.5,1.6-0.1l7.6,7.1
		C29,14.1,29.1,14.8,28.6,15.2L28.6,15.2z"/>
	<path class="st4" d="M28,19.2c-0.4,0.4-1.1,0.5-1.6,0L15.5,9c-0.4-0.4-0.5-1.1-0.1-1.6l0,0C15.9,7,16.6,7,17,7.4l10.9,10.2
		C28.4,18,28.4,18.7,28,19.2L28,19.2z"/>
	<path class="st4" d="M24.1,20.1c-0.4,0.4-1.1,0.5-1.6,0.1L14.9,13c-0.4-0.4-0.5-1.1-0.1-1.6l0,0c0.4-0.4,1.1-0.5,1.6-0.1l7.6,7.1
		C24.5,18.9,24.5,19.6,24.1,20.1L24.1,20.1z"/>
	<path class="st4" d="M7.6,30.1c-0.4,0.4-1,0.4-1.4,0l0,0c-0.4-0.4-0.4-1,0-1.4l9.7-10.4l1.4,1.3L7.6,30.1z"/>
	<path class="st4" d="M10.3,15.6c-0.9,1-2.5,1-3.5,0.1c-1-0.9-1-2.5-0.1-3.5c0.9-1,4.7-1.4,4.7-1.4S11.2,14.6,10.3,15.6z"/>
</g>
</svg>
